<?xml version="1.0" encoding="UTF-8" standalone="no"?>
<svg
   height="226"
   viewBox="0 -960 6400 9040"
   width="160"
   version="1.1"
   id="svg1"
   sodipodi:docname="not_found.svg"
   inkscape:version="1.3 (0e150ed6c4, 2023-07-21)"
   xmlns:inkscape="http://www.inkscape.org/namespaces/inkscape"
   xmlns:sodipodi="http://sodipodi.sourceforge.net/DTD/sodipodi-0.dtd"
   xmlns="http://www.w3.org/2000/svg"
   xmlns:svg="http://www.w3.org/2000/svg">
  <defs
     id="defs1" />
  <sodipodi:namedview
     id="namedview1"
     pagecolor="#ffffff"
     bordercolor="#000000"
     borderopacity="0.25"
     inkscape:showpageshadow="2"
     inkscape:pageopacity="0.0"
     inkscape:pagecheckerboard="0"
     inkscape:deskcolor="#d1d1d1"
     inkscape:zoom="2.1171875"
     inkscape:cx="76.516605"
     inkscape:cy="98.00738"
     inkscape:window-width="1920"
     inkscape:window-height="1009"
     inkscape:window-x="-8"
     inkscape:window-y="-8"
     inkscape:window-maximized="1"
     inkscape:current-layer="svg1" />
  <rect
     style="fill:#b5b5b5;fill-opacity:1;stroke-width:40.1189"
     id="rect1"
     width="6385.8306"
     height="9011.9551"
     x="18.893002"
     y="-941.10706" />
  <path
     d="M 4658.1148,5235.8077 4295.553,4873.2459 H 2218.7041 q -130.0494,0 -222.6603,-92.6109 -92.6109,-92.611 -92.6109,-222.6603 V 2481.1257 L 1540.871,2114.623 1761.5609,1893.9332 4882.7456,5015.1179 Z M 2218.7041,4557.9747 H 3980.2818 L 3665.0106,4242.7035 H 2376.3397 l 472.9068,-630.5424 315.2711,429.557 133.9902,-165.5173 L 2218.7041,2796.3969 Z M 4740.8736,4427.9253 4425.6024,4112.6542 V 2351.0764 H 2664.0247 l -315.2712,-315.2711 h 2076.8489 q 130.0492,0 222.6603,92.6108 92.6109,92.6109 92.6109,222.6603 z M 3554.6657,3241.7175 Z m -453.2023,437.4388 z"
     id="path1"
     style="stroke-width:3.94089" />
</svg>
